<?xml version='1.0' encoding='utf-8'?>
<svg xmlns="http://www.w3.org/2000/svg" enable-background="new 0 0 45.5 32.7" version="1.1" viewBox="0 0 45.5 32.7"> <linearGradient id="d" x1="-.0088" x2="44.916" y1="17.363" y2="17.363" gradientTransform="matrix(.7246 -.00029985 -.00039378 .5388 7.4503 15.25)" gradientUnits="userSpaceOnUse"> <stop stop-color="#A0A1A3" offset=".0235"/> <stop stop-color="#78797A" offset="1"/> </linearGradient> <path d="m36.288 19.103c2.85 1.616 4.069 3.538 3.658 5.766-0.435 2.228-2.379 4.096-5.832 5.604-3.478 1.527-7.463 2.255-11.955 2.183-4.469-0.071-8.14-0.925-11.014-2.56-2.85-1.616-4.058-3.538-3.623-5.766 0.41-2.227 2.354-4.095 5.833-5.604 3.478-1.526 7.451-2.254 11.919-2.183 4.468 0.09 8.139 0.943 11.014 2.56z" clip-rule="evenodd" fill="url(#d)" fill-rule="evenodd"/> <linearGradient id="e" x1="-48.19" x2=".9808" y1="-10.218" y2="-10.218" gradientTransform="matrix(-.7009 -.1365 .1835 -.5213 7.4502 15.25)" gradientUnits="userSpaceOnUse"> <stop stop-color="#ccc" offset="0"/> <stop stop-color="#fff" offset="1"/> </linearGradient> <path d="m36.288 18.968c2.874 1.527 4.094 3.332 3.658 5.416-0.435 2.083-2.379 3.834-5.832 5.253-3.478 1.419-7.451 2.093-11.919 2.021-4.493-0.071-8.164-0.871-11.014-2.397-2.874-1.526-4.094-3.332-3.659-5.415 0.41-2.084 2.354-3.835 5.833-5.254 3.478-1.437 7.451-2.12 11.919-2.048 4.468 0.089 8.139 0.897 11.014 2.424z" clip-rule="evenodd" fill="url(#e)" fill-rule="evenodd"/> <linearGradient id="f" x1="-3.6226" x2="37.633" y1="16.211" y2="16.211" gradientTransform="matrix(.7246 .00032676 .00045946 .5388 7.0998 15.25)" gradientUnits="userSpaceOnUse"> <stop stop-color="#ccc" offset="0"/> <stop stop-color="#fff" offset="1"/> </linearGradient> <path d="m35.322 19.695c2.632 1.293 3.756 2.812 3.368 4.554-0.386 1.742-2.173 3.206-5.361 4.391-3.188 1.186-6.823 1.742-10.904 1.671-4.106-0.072-7.475-0.746-10.108-2.021-2.632-1.275-3.756-2.793-3.369-4.554 0.411-1.742 2.198-3.206 5.362-4.392 3.188-1.186 6.835-1.742 10.94-1.67 4.106 0.072 7.463 0.746 10.072 2.021z" clip-rule="evenodd" fill="url(#f)" fill-rule="evenodd"/> <g clip-rule="evenodd" fill-rule="evenodd"> <path d="m14.449 18.063c-0.176-0.054-0.455-0.095-0.837-0.122-0.44 0.027-0.779 0.027-1.014 0 0.089-0.322 0.367-0.444 0.837-0.362 0.383 0.08 0.72 0.242 1.014 0.484z" fill="#FCF19F"/> <path d="m31.585 18.548h0.616c0.323 0.431 0.5 0.673 0.528 0.727v0.364h-0.66v-0.242c-0.059-0.351-0.177-0.512-0.353-0.485-0.029-0.054-0.103-0.094-0.221-0.121h-0.308c-0.177-0.054-0.162-0.095 0.044-0.121 0.265-1e-3 0.383-0.041 0.354-0.122z" fill="#B6181F"/> <path d="m31.717 19.881c-0.294-0.081-0.646-0.282-1.058-0.606 0.03-0.135 0.104-0.161 0.22-0.08 0.118 0.08 0.221 0.107 0.31 0.08 0.059 0 0.117 0.027 0.176 0.081s0.132 0.067 0.221 0.041c0 0.08 0.132 0.12 0.396 0.12 0 0.027-0.029 0.082-0.088 0.162-0.059 0.054-0.073 0.121-0.044 0.202h-0.133z" fill="#B6181F"/> <path d="m19.823 19.517c0.058-0.134 0.206-0.161 0.44-0.08 0.118 0.054 0.264 0.121 0.44 0.202-0.088 0.134-0.22 0.148-0.396 0.04-0.234-0.135-0.395-0.189-0.484-0.162z" fill="#FCF19F"/> <path d="m24.757 20.365c-0.234 0.027-0.426-0.04-0.572-0.202-0.147-0.161-0.162-0.296-0.044-0.404 0.029 0.108 0.131 0.202 0.308 0.283 0.205 0.081 0.308 0.188 0.308 0.323z" fill="#F6DE6F"/> <path d="m33.787 20.81c0.088 0.135 0.221 0.188 0.396 0.161 0 0.081 0.133 0.121 0.397 0.121l0.396-0.121c0 0.108 0.161 0.202 0.484 0.283 0.264 0.054 0.367 0.188 0.309 0.404-0.147 0.054-0.294 0.054-0.44 0-0.177-0.082-0.294-0.122-0.353-0.122h-0.528c-0.206 0.027-0.382 0-0.529-0.08-0.117-0.27-0.293-0.391-0.528-0.364v-0.121l0.132-0.484 0.264 0.323z" fill="#F6DA31"/> <path d="m35.637 22.143c0.029-0.027 0.088-0.094 0.177-0.202 0.088-0.107 0.191-0.162 0.308-0.162 0 0.162-0.059 0.283-0.176 0.364-0.059 0.081-0.161 0.161-0.309 0.242v-0.242z" fill="#F6DE6F"/> <path d="m28.413 22.627c0.117 0 0.205-0.081 0.264-0.242 0.177 0.027 0.426 0.135 0.749 0.323 0.294 0.161 0.572 0.256 0.838 0.282 0 0.216-0.089 0.337-0.266 0.363-0.264 0.027-0.528-0.054-0.792-0.242-0.294-0.161-0.559-0.242-0.793-0.242v-0.242z" fill="#F6DA31"/> <path d="m28.148 22.869c-0.059 0.107-0.249 0.148-0.573 0.121-0.381-0.026-0.615-0.026-0.704 0 0 0.135 0.089 0.216 0.264 0.243h0.529v0.12h-0.66c-0.206 0.027-0.427-0.026-0.661-0.161-0.235-0.134-0.455-0.202-0.661-0.202v-0.121c0.117 0 0.206-0.081 0.265-0.242 0.205 0.161 0.778 0.242 1.718 0.242h0.483z" fill="#F6DA31"/> <path d="m23.347 23.233h0.133c0.088 0.107 0.029 0.242-0.177 0.403-0.293 0.216-0.455 0.363-0.484 0.444-0.117-0.054-0.161-0.135-0.132-0.242v-0.121l0.66-0.484z" fill="#F6DE6F"/> <path d="m27.004 23.354h0.66c0 0.082-0.044 0.162-0.132 0.242-0.383 0.459-0.823 0.862-1.322 1.212h-0.264c-0.118-0.215-0.162-0.417-0.133-0.605 0.147 0.027 0.266-0.027 0.353-0.161 0.118-0.135 0.221-0.202 0.309-0.202 0.234-0.109 0.411-0.271 0.529-0.486z" fill="#B6181F"/> <path d="m31.717 24.202c-0.146 0-0.338-0.067-0.572-0.202-0.206-0.134-0.411-0.188-0.617-0.161 0.117-0.297 0.352-0.391 0.705-0.283 0.205 0.027 0.484 0.122 0.837 0.283 0.029 0.107-0.029 0.175-0.177 0.202-0.118 0.026-0.176 0.08-0.176 0.161z" fill="#F6DA31"/> <path d="m24.141 24.323c-0.118 0.081-0.279 0.108-0.484 0.081-0.235-0.027-0.426-0.014-0.573 0.041 0.233-0.404 0.587-0.445 1.057-0.122z" fill="#F6DA31"/> <path d="m31.585 26.585c-0.03 0-0.221 0.027-0.573 0.081-0.176 0.054-0.293-0.013-0.353-0.201 0.382-0.055 0.603-0.176 0.661-0.364 0.176 0.081 0.309 0.202 0.396 0.364-0.116 0-0.161 0.04-0.131 0.12z" fill="#77A32F"/> <path d="m27.004 26.465v-0.122c0.234 0.027 0.44 0.135 0.616 0.323l0.309 0.524h-0.133c-0.352-0.188-0.616-0.43-0.792-0.725z" fill="#732F20"/> <path d="m11.322 20.365c0.176 0.081 0.367 0.27 0.572 0.565 0.235 0.323 0.426 0.525 0.573 0.605 0.146-0.215 0.029-0.524-0.353-0.928-0.352-0.403-0.616-0.484-0.792-0.242-0.353-0.188-0.573-0.472-0.661-0.849-0.265-0.054-0.396 0.082-0.396 0.404-0.029 0.297 0.015 0.525 0.131 0.688 1.263 1.749 3.965 3.189 8.105 4.321h0.132c0.146 0.242 0.587 0.39 1.322 0.443h0.131c-0.029 0.216-0.601 0.122-1.717-0.282-1.175-0.457-1.88-0.592-2.115-0.403-0.412-0.108-0.705-0.229-0.881-0.364 0.118-0.026 0.25 0 0.397 0.081 0.117 0.054 0.25 0.067 0.396 0.041-0.324-0.188-0.926-0.432-1.807-0.728-0.822-0.27-1.409-0.512-1.762-0.728 0.118 0.108 0.162 0.229 0.132 0.363-1.116-0.699-1.923-1.48-2.422-2.342-0.588-0.97-0.646-1.831-0.177-2.585 0.294-0.485 1.205-1.131 2.732-1.939 1.468-0.808 2.643-1.279 3.524-1.414 2.114-0.296 4.316-0.242 6.607 0.162 2.026 0.377 3.832 0.97 5.418 1.777-0.088 0-0.426-0.094-1.013-0.283-0.588-0.188-1.072-0.256-1.454-0.202-0.029 0.243 0.19 0.364 0.66 0.364-0.029 0.054-0.043 0.175-0.043 0.363 0 0.109-0.052 0.21-0.154 0.304 0.193-0.142 0.406-0.188 0.639-0.142 0.264 0.08 0.426 0.256 0.484 0.524-0.294-0.134-0.484-0.215-0.572-0.242-0.147-0.026-0.354 0.027-0.617 0.162 0.029 0.107 0.103 0.135 0.221 0.08 0.176-0.107 0.322-0.134 0.44-0.08 0.029 0.161-0.059 0.256-0.265 0.282-0.234 0.055-0.367 0.108-0.396 0.162 0 0.161 0.073 0.201 0.221 0.121 0.059-0.033 0.103-0.066 0.131-0.101-0.074 0.11-0.251 0.238-0.528 0.383-0.411 0.242-0.704 0.311-0.881 0.202 0.029 0.27-0.073 0.472-0.308 0.605-0.06 0.027-0.309 0.108-0.75 0.242-0.087-0.08-0.102-0.201-0.043-0.362 0.028-0.135-0.029-0.216-0.177-0.243-0.352 0.297-0.705 0.377-1.058 0.243-0.176 0.026-0.249 0.107-0.22 0.242 0.059 0.188 0.044 0.309-0.044 0.363-0.177 0.027-0.309 0-0.396-0.081-0.117-0.107-0.206-0.162-0.265-0.162 0.177 0.188 0.089 0.271-0.264 0.243 0.088 0.134 0.118 0.27 0.088 0.404-0.029 0.134-0.015 0.242 0.045 0.322 0.323 0 0.455-0.12 0.396-0.363 0.176 0.027 0.205 0.148 0.088 0.363-0.117 0.216-0.015 0.337 0.309 0.363-0.235 0.189-0.603 0.458-1.102 0.809-0.47 0.296-0.925 0.497-1.365 0.605 0.176 0.646 0.176 1.09 0 1.333 0.118-0.027 0.308-0.055 0.573-0.081 0.206-0.026 0.308-0.121 0.308-0.282 0.029 0.322 0.293 0.403 0.793 0.242 0-0.054-0.06-0.135-0.177-0.242-0.088-0.081-0.118-0.202-0.088-0.364 0.06-0.135 0.103-0.094 0.132 0.122 0.029 0.242 0.073 0.362 0.133 0.362 0.235-0.106 1.423-1.225 3.568-3.352 1.498-1.508 3.142-2.114 4.933-1.817-2.031 0.051-3.963 1.175-5.792 3.372 0.03-0.085 0.038-0.173 0.022-0.263-0.059 0.081-0.309 0.364-0.749 0.849-0.265 0.323-0.529 0.525-0.793 0.605 0.205 0.162 0.396 0.121 0.573-0.121 0.234-0.323 0.426-0.484 0.571-0.484-0.116 0.242-0.366 0.525-0.748 0.849h-0.133c-0.234-0.027-0.484 0.054-0.748 0.242-0.411 0.296-0.646 0.457-0.705 0.484 0.117 0.054 0.25 0.054 0.396 0 0.234-0.162 0.367-0.242 0.396-0.242v0.121c-0.177 0.27-0.603 0.404-1.278 0.404-0.734 0-1.174 0.066-1.322 0.202-1.85-0.432-3.95-1.078-6.298-1.939 0.029-0.08 0.103-0.094 0.22-0.04 0.176 0.08 0.323 0.094 0.44 0.04-0.793-0.296-1.396-0.539-1.806-0.728-0.73-0.317-1.171-0.789-1.317-1.408zm3.788-4.322c0.792-0.215 1.938-0.31 3.436-0.282 0.44 0 1.777 0.054 4.009 0.161-0.823-0.511-2.085-0.767-3.789-0.767-1.791 0-3.01 0.296-3.656 0.888zm-1.674 1.536c-0.47-0.082-0.749 0.04-0.837 0.362 0.235 0.027 0.573 0.027 1.014 0 0.382 0.027 0.661 0.068 0.837 0.122-0.295-0.242-0.632-0.404-1.014-0.484zm7.268 2.06c-0.176-0.081-0.323-0.148-0.44-0.202-0.235-0.081-0.382-0.054-0.44 0.08 0.088-0.026 0.25 0.027 0.484 0.162 0.176 0.108 0.308 0.093 0.396-0.04zm-0.881 3.351c-0.146 0.081-0.337 0.135-0.572 0.162-0.206 0-0.368 0.067-0.485 0.201 0.5 0.054 0.896-0.106 1.19-0.484-0.059-0.053-0.176-0.094-0.353-0.121-0.176-0.054-0.278-0.014-0.308 0.121h0.308c0.118 0.027 0.191 0.068 0.22 0.121zm6.916-3.473c0.265-0.026 0.44-0.148 0.528-0.363-0.528 0.215-0.896 0.445-1.102 0.688-0.263 0.267-0.072 0.16 0.574-0.325z" fill="#FFEBA6"/> <path d="m13.789 23.718 0.661 0.161c0.293 0.081 0.47 0.188 0.528 0.323-0.646-0.107-1.043-0.269-1.189-0.484z" fill="#FDF8CF"/> <path d="m16.388 24.688c0.528 0.026 0.969 0.188 1.321 0.484l-0.706-0.202c-0.293-0.081-0.498-0.176-0.615-0.282z" fill="#FDF8CF"/> <path d="m28.545 17.013c0.411 0.081 1.513 0.431 3.304 1.051-0.382-0.054-0.778-0.054-1.189 0 0.147-0.162-0.117-0.324-0.792-0.484-0.765-0.189-1.206-0.378-1.323-0.567z" fill="#FDF8CF"/> <path d="m31.585 18.548c-0.265-0.027-0.485 0.013-0.661 0.121h-0.792c-0.235 0.054-0.322 0.175-0.264 0.363-1.527 0-2.952 0.821-4.273 2.464-1.497 1.857-2.775 2.921-3.833 3.191 0.147 0.161 0.485 0.269 1.013 0.322 0.646 0.027 1.057 0.081 1.233 0.162-0.059 0.215-0.015 0.323 0.133 0.323 0 0.188-0.221 0.229-0.661 0.12 0.029 0.188 0.322 0.229 0.881 0.122l-0.133 0.363c0.059 0.027 0.191 0 0.397-0.081 0.117-0.054 0.161 0.014 0.132 0.202-0.44-0.054-0.764-0.107-0.97-0.161-0.322-0.108-0.557-0.257-0.704-0.445-0.088 0-0.133 0.082-0.133 0.243-2.319-1.077-5.286-2.033-8.897-2.868 0.44 0.323 1.16 0.66 2.159 1.01 1.145 0.377 1.908 0.688 2.29 0.93-4.141-1.132-6.842-2.572-8.105-4.321-0.117-0.162-0.161-0.391-0.131-0.688 0-0.322 0.131-0.458 0.396-0.404 0.088 0.377 0.308 0.66 0.661 0.849 0.146 0.619 0.587 1.091 1.322 1.413 0.41 0.188 1.013 0.432 1.806 0.728-0.118 0.054-0.264 0.04-0.44-0.04-0.118-0.054-0.191-0.04-0.22 0.04 2.349 0.861 4.449 1.508 6.298 1.939 0.147-0.136 0.588-0.202 1.322-0.202 0.675 0 1.101-0.135 1.278-0.404-0.029 0.107 0.015 0.188 0.132 0.242 0.029-0.081 0.191-0.229 0.484-0.444 0.206-0.161 0.265-0.296 0.177-0.403 0.382-0.323 0.632-0.606 0.748-0.849v-0.121c1.938-2.505 3.994-3.783 6.167-3.837-1.791-0.297-3.435 0.31-4.933 1.817-2.145 2.127-3.333 3.245-3.568 3.352-0.06 0-0.104-0.12-0.133-0.362-0.029-0.216-0.073-0.257-0.132-0.122-0.029 0.162 0 0.283 0.088 0.364 0.117 0.107 0.177 0.188 0.177 0.242-0.5 0.161-0.764 0.08-0.793-0.242 0 0.161-0.103 0.256-0.308 0.282-0.265 0.026-0.455 0.054-0.573 0.081 0.176-0.243 0.176-0.687 0-1.333 0.44-0.108 0.896-0.31 1.365-0.605 0.499-0.351 0.866-0.619 1.102-0.809-0.323-0.026-0.426-0.147-0.309-0.363 0.117-0.215 0.088-0.336-0.088-0.363 0.059 0.243-0.073 0.363-0.396 0.363-0.06-0.08-0.074-0.188-0.045-0.322 0.03-0.135 0-0.271-0.088-0.404 0.353 0.027 0.441-0.055 0.264-0.243 0.059 0 0.147 0.055 0.265 0.162 0.088 0.081 0.22 0.108 0.396 0.081 0.088-0.055 0.103-0.175 0.044-0.363-0.029-0.135 0.044-0.216 0.22-0.242 0.353 0.134 0.706 0.054 1.058-0.243 0.147 0.027 0.205 0.108 0.177 0.243-0.059 0.161-0.044 0.282 0.043 0.362 0.441-0.134 0.69-0.215 0.75-0.242 0.234-0.134 0.337-0.336 0.308-0.605 0.177 0.108 0.47 0.04 0.881-0.202 0.277-0.145 0.454-0.272 0.528-0.383-0.028 0.034-0.072 0.067-0.131 0.101-0.147 0.08-0.221 0.04-0.221-0.121 0.029-0.054 0.162-0.107 0.396-0.162 0.206-0.026 0.294-0.121 0.265-0.282-0.118-0.054-0.265-0.027-0.44 0.08-0.118 0.055-0.191 0.027-0.221-0.08 0.264-0.135 0.47-0.188 0.617-0.162 0.088 0.027 0.278 0.108 0.572 0.242-0.059-0.269-0.221-0.444-0.484-0.524-0.232-0.047-0.445 0-0.639 0.142 0.103-0.094 0.154-0.194 0.154-0.304 0-0.188 0.014-0.31 0.043-0.363-0.47 0-0.689-0.121-0.66-0.364 0.382-0.054 0.866 0.014 1.454 0.202 0.587 0.188 0.925 0.283 1.013 0.283h0.132c0.117 0.189 0.558 0.378 1.322 0.566 0.675 0.16 0.939 0.322 0.792 0.484 0.411-0.054 0.808-0.054 1.189 0 0.088 0.135 0.25 0.175 0.484 0.121 0.029 0.054 0.147 0.147 0.354 0.282 0.175 0.081 0.189 0.148 0.043 0.202-0.088-0.08-0.264-0.121-0.528-0.121h-0.618zm-20.263 1.817c0.176-0.242 0.44-0.161 0.792 0.243 0.382 0.403 0.499 0.713 0.353 0.928-0.147-0.08-0.338-0.282-0.573-0.605-0.206-0.296-0.396-0.485-0.572-0.566zm11.717-0.323c-0.089 0.081-0.118 0.188-0.089 0.323 0.206 0 0.294 0.081 0.266 0.243 0.499-0.028 0.719-0.189 0.66-0.485-0.118-0.027-0.161-0.107-0.133-0.242-0.264 0-0.44-0.04-0.527-0.122 0 0.028-0.06 0.122-0.177 0.283zm1.146 0.121c0.146 0.162 0.338 0.229 0.572 0.202 0-0.135-0.103-0.242-0.309-0.323-0.177-0.081-0.278-0.175-0.308-0.283-0.118 0.108-0.103 0.243 0.045 0.404z" fill="#FADF88"/> <path d="m12.731 23.354c0.029-0.134-0.015-0.255-0.132-0.363 0.353 0.216 0.94 0.458 1.762 0.728 0.881 0.296 1.483 0.539 1.807 0.728-0.147 0.026-0.28 0.013-0.396-0.041-0.147-0.081-0.279-0.107-0.397-0.081-0.118-0.08-0.25-0.121-0.396-0.121-0.059-0.135-0.235-0.242-0.528-0.323l-0.661-0.161-0.44-0.242c-0.207-0.111-0.413-0.151-0.619-0.124z" fill="#D4AC35"/> <path d="m27.268 19.153c-0.088 0.215-0.264 0.337-0.528 0.363-0.646 0.485-0.837 0.593-0.573 0.324 0.205-0.241 0.572-0.472 1.101-0.687z" fill="#fff"/> <path d="m24.228 22.385c-0.146 0-0.337 0.161-0.571 0.484-0.177 0.242-0.368 0.283-0.573 0.121 0.264-0.08 0.528-0.282 0.793-0.605 0.44-0.484 0.69-0.768 0.749-0.849 0.029 0.162-0.015 0.311-0.133 0.444l-0.265 0.283v0.122z" fill="#fff"/> <path d="m22.687 23.718c-0.029 0-0.162 0.08-0.396 0.242-0.146 0.054-0.279 0.054-0.396 0 0.058-0.027 0.293-0.188 0.705-0.484 0.264-0.188 0.514-0.27 0.748-0.242l-0.661 0.484z" fill="#fff"/> <path d="m18.501 24.93c-0.382-0.242-1.145-0.553-2.29-0.93-0.999-0.35-1.718-0.687-2.159-1.01 3.612 0.835 6.578 1.791 8.897 2.868 0-0.161 0.045-0.243 0.133-0.243 0.147 0.188 0.382 0.337 0.704 0.445 0.206 0.054 0.529 0.107 0.97 0.161 0.029-0.188-0.015-0.256-0.132-0.202-0.206 0.081-0.339 0.108-0.397 0.081l0.133-0.363c-0.559 0.107-0.852 0.066-0.881-0.122 0.44 0.108 0.661 0.068 0.661-0.12-0.147 0-0.191-0.108-0.133-0.323-0.177-0.081-0.587-0.135-1.233-0.162-0.528-0.054-0.866-0.161-1.013-0.322 1.057-0.271 2.335-1.334 3.833-3.191 1.321-1.643 2.746-2.464 4.273-2.464-0.059-0.188 0.028-0.31 0.264-0.363h0.396c-0.029 0.188-0.104 0.282-0.22 0.282-0.147 0-0.25 0.027-0.31 0.081l-0.264 0.364h-0.132c-0.147-0.135-0.279-0.216-0.396-0.243-0.353 0.135-0.617 0.337-0.793 0.605-0.117 0.188-0.367 0.391-0.749 0.606-0.118-0.135-0.205-0.081-0.264 0.161-0.06 0.242-0.06 0.431 0 0.565-0.324-0.053-0.5 0.027-0.529 0.242 0 0.189-0.088 0.297-0.265 0.324-0.087-0.027-0.102-0.054-0.043-0.082 0.028-0.106 0.043-0.188 0.043-0.242-0.587 0.297-1.013 0.835-1.277 1.616-0.293 0.889-0.22 1.629 0.221 2.222 0.205 0.7 0.558 1.211 1.057 1.535-0.029 0.08 0.015 0.12 0.133 0.12 0.029 0.108 0.117 0.229 0.265 0.363l-0.133 0.242c-0.059 0-0.088-0.026-0.088-0.08l-0.044-0.162c-0.089 0.027-0.162 0.068-0.22 0.122-0.03 0.054 0 0.094 0.087 0.12-0.146 0.136-0.205 0.108-0.176-0.08 0-0.188 0.059-0.323 0.176-0.404-0.411 0.054-1.013-0.04-1.806-0.282-0.91-0.296-1.57-0.444-1.982-0.444-0.059 0.135 0 0.229 0.177 0.283 0.146 0.026 0.221 0.094 0.221 0.202-0.147 0.026-0.295 0.013-0.441-0.041s-0.265-0.081-0.353-0.081c-0.088-0.054-0.103-0.148-0.044-0.282 0.029-0.135 0-0.242-0.088-0.323-0.352 0.026-0.734-0.054-1.146-0.242-0.44-0.242-0.792-0.364-1.058-0.364h-0.131c-0.382-0.269-0.823-0.417-1.322-0.443h-0.132zm4.582-0.485c0.147-0.055 0.338-0.068 0.573-0.041 0.205 0.027 0.366 0 0.484-0.081-0.469-0.323-0.823-0.282-1.057 0.122z" fill="#F5CD53"/> <path d="m31.364 19.355c-0.059-0.054-0.117-0.081-0.176-0.081-0.059-0.107-0.235-0.188-0.529-0.242-0.088 0-0.19 0.027-0.308 0.081-0.059 0.026-0.133 0-0.221-0.081h-0.133c0.06-0.054 0.162-0.081 0.31-0.081 0.116 0 0.19-0.094 0.22-0.282h0.396c0 0.135 0.088 0.216 0.265 0.242h0.528c0.176-0.026 0.294 0.135 0.353 0.485h-0.484c-0.089 0.027-0.162 0.013-0.221-0.041z" fill="#F6DA31"/> <path d="m31.717 18.911h-0.528c-0.177-0.026-0.265-0.107-0.265-0.242 0.176-0.108 0.396-0.148 0.661-0.121 0.029 0.081-0.089 0.121-0.353 0.121-0.206 0.026-0.221 0.067-0.044 0.121h0.308c0.118 0.027 0.192 0.067 0.221 0.121z" fill="#77A32F"/> <path d="m32.201 18.548c0.265 0 0.44 0.041 0.528 0.121v0.242c0 0.054 0.029 0.135 0.088 0.242 0.029 0.055 0 0.095-0.088 0.121-0.028-0.053-0.205-0.295-0.528-0.726z" fill="#732F20"/> <path d="m30.659 19.274c0.411 0.324 0.764 0.525 1.058 0.606h-0.528c-0.029-0.081-0.162-0.216-0.396-0.404-0.206-0.161-0.25-0.31-0.133-0.444 0.294 0.054 0.471 0.135 0.529 0.242-0.089 0.027-0.191 0-0.31-0.08-0.116-0.081-0.19-0.054-0.22 0.08z" fill="#77A32F"/> <path d="m33.522 19.759-0.265 0.122c-0.116 0-0.234-0.054-0.352-0.162-0.089-0.08-0.19-0.067-0.309 0.04 0.029 0.082 0.161 0.162 0.396 0.243 0.206 0.054 0.293 0.175 0.264 0.363-0.029 0-0.116-0.067-0.264-0.202-0.118-0.08-0.206-0.054-0.265 0.081-0.028-0.054-0.19-0.148-0.484-0.283-0.234-0.134-0.294-0.242-0.176-0.322h0.66v-0.364c0.088-0.026 0.117-0.066 0.088-0.121-0.059-0.107-0.088-0.188-0.088-0.242 0.265 0 0.514 0.081 0.749 0.242 0.264 0.188 0.484 0.297 0.661 0.323 0.029 0.081 0.176 0.242 0.44 0.484 0.176 0.162 0.22 0.337 0.132 0.525 0.029 0.108 0.015 0.216-0.044 0.323-0.059 0.081-0.088 0.175-0.088 0.282-0.265 0-0.397-0.04-0.397-0.121 0.089-0.242 0.118-0.431 0.089-0.564-0.089-0.188-0.161-0.364-0.22-0.525-0.206 0-0.339 0.08-0.396 0.242-0.088-0.027-0.103-0.081-0.044-0.162 0.061-0.08 0.032-0.148-0.087-0.202z" fill="#B8952E"/> <path d="m30.131 19.032c0.088 0.081 0.162 0.107 0.221 0.081 0.117-0.054 0.22-0.081 0.308-0.081-0.117 0.135-0.073 0.283 0.133 0.444 0.234 0.188 0.367 0.323 0.396 0.404-0.059-0.081-0.25-0.202-0.573-0.364-0.264-0.161-0.427-0.322-0.485-0.484z" fill="#F6DE6F"/> <path d="m30.395 19.881c0.029 0.026 0.147 0.08 0.354 0.161 0.146 0.054 0.249 0.121 0.308 0.202-0.146 0.027-0.162 0.067-0.044 0.121 0.118 0.107 0.177 0.188 0.177 0.243h-0.133c-0.029-0.108-0.162-0.216-0.396-0.324-0.178-0.107-0.266-0.242-0.266-0.403z" fill="#77A32F"/> <path d="m29.867 20.042c-0.529-0.296-1.014-0.391-1.454-0.283 0.176-0.269 0.44-0.471 0.793-0.605 0.117 0.027 0.249 0.108 0.396 0.243l0.352 0.282c0.147 0.108 0.295 0.175 0.44 0.202 0 0.161 0.089 0.296 0.265 0.403 0.234 0.108 0.367 0.216 0.396 0.324 0.147 0.134 0.147 0.215 0 0.242-0.498-0.377-0.895-0.646-1.188-0.808z" fill="#F6DA31"/> <path d="m29.734 20.325c-0.382-0.027-0.646 0.026-0.793 0.161-0.205-0.026-0.411-0.014-0.616 0.04-0.265 0.054-0.44 0.082-0.529 0.082-0.088-0.082-0.132-0.162-0.132-0.243 0.382-0.216 0.632-0.418 0.749-0.606 0.44-0.107 0.925-0.013 1.454 0.283 0.293 0.162 0.689 0.431 1.188 0.809v0.12c-0.352 0-0.528 0.041-0.528 0.121-0.176 0-0.47-0.066-0.881-0.201-0.323-0.108-0.646-0.122-0.97-0.04 0.06-0.108 0.221-0.148 0.485-0.122 0.322 0.027 0.514 0.027 0.572 0h0.529c0.06-0.243-0.116-0.377-0.528-0.404zm-0.924 0.04c0.205-0.216 0.293-0.418 0.264-0.606-0.088 0.162-0.308 0.297-0.66 0.404-0.265 0.055-0.383 0.162-0.353 0.323 0-0.108 0.103-0.148 0.309-0.121 0.263 0.028 0.41 0.028 0.44 0z" fill="#77A32F"/> <path d="m31.585 19.396h0.484v0.242c-0.118 0.08-0.059 0.188 0.176 0.322 0.294 0.135 0.456 0.229 0.484 0.283v0.121c-0.117 0-0.234-0.04-0.353-0.121-0.117-0.081-0.22-0.121-0.308-0.121-0.059-0.135-0.133-0.216-0.221-0.242-0.029-0.081-0.015-0.148 0.044-0.202 0.059-0.08 0.088-0.135 0.088-0.162-0.262 1e-3 -0.394-0.039-0.394-0.12z" fill="#77A32F"/> <path d="m29.162 20.729c-0.265-0.026-0.426 0.014-0.485 0.122-0.059 0.106-0.234 0.188-0.528 0.241 0.088 0.136 0.221 0.324 0.396 0.566-0.323-0.188-0.484-0.377-0.484-0.566-0.205 0.162-0.426 0.162-0.66 0-0.06-0.135-0.06-0.323 0-0.565 0.059-0.242 0.146-0.296 0.264-0.161 0 0.081 0.044 0.161 0.132 0.243 0.089 0 0.265-0.028 0.529-0.082 0.205-0.054 0.411-0.066 0.616-0.04 0.265-0.054 0.528-0.014 0.793 0.122v0.12c-0.059 0.027-0.251 0.027-0.573 0z" fill="#FCF19F"/> <path d="m26.606 21.658v0.12c-0.146 0.028-0.264 0.135-0.353 0.323-0.088 0.162-0.189 0.256-0.308 0.283-0.323 0-0.528 0.363-0.617 1.091-0.088 0.727-0.015 1.292 0.221 1.696-0.44-0.593-0.514-1.333-0.221-2.222 0.265-0.781 0.69-1.319 1.277-1.616 0 0.054-0.015 0.136-0.043 0.242-0.057 0.029-0.042 0.056 0.044 0.083z" fill="#FCF19F"/> <path d="m16.255 24.688c0.235-0.188 0.939-0.054 2.115 0.403 1.116 0.404 1.688 0.498 1.717 0.282 0.265 0 0.617 0.122 1.058 0.364 0.411 0.188 0.793 0.269 1.146 0.242 0.088 0.081 0.117 0.188 0.088 0.323-0.059 0.134-0.044 0.229 0.044 0.282-2.672-0.835-4.243-1.306-4.713-1.413-0.353-0.296-0.793-0.458-1.321-0.484h-0.134z" fill="#D4AC35"/> <path d="m28.81 20.365c-0.029 0.027-0.177 0.027-0.44 0-0.206-0.027-0.309 0.013-0.309 0.121-0.03-0.161 0.088-0.269 0.353-0.323 0.353-0.107 0.572-0.242 0.66-0.404 0.029 0.188-0.059 0.39-0.264 0.606z" fill="#B6181F"/> <path d="m33.258 19.881c0.206 0.054 0.265 0.215 0.177 0.484-0.059 0.296-0.162 0.377-0.308 0.243-0.03-0.162-0.162-0.243-0.397-0.243v-0.121c0.059-0.135 0.146-0.161 0.265-0.081 0.147 0.135 0.234 0.202 0.264 0.202 0.029-0.188-0.058-0.31-0.264-0.363-0.235-0.081-0.367-0.161-0.396-0.243 0.118-0.107 0.22-0.12 0.309-0.04 0.115 0.108 0.234 0.162 0.35 0.162z" fill="#F6DE6F"/> <path d="m23.216 20.608c0.028-0.162-0.06-0.243-0.266-0.243-0.029-0.135 0-0.242 0.089-0.323 0.117-0.161 0.177-0.255 0.177-0.283 0.087 0.082 0.264 0.122 0.527 0.122-0.028 0.135 0.015 0.215 0.133 0.242 0.059 0.296-0.161 0.457-0.66 0.485z" fill="#FFEBA6"/> <path d="m32.069 20.123c0.088 0 0.19 0.04 0.308 0.121s0.235 0.121 0.353 0.121c-0.028 0.27-0.234 0.31-0.616 0.121-0.383-0.161-0.397-0.282-0.045-0.363z" fill="#FDF8CF"/> <path d="m33.171 20.81c0.087 0.107 0.161 0.161 0.22 0.161v0.121c0.235-0.026 0.411 0.095 0.528 0.364h-0.264c-0.029-0.162-0.118-0.202-0.265-0.122-0.147 0.082-0.19 0.189-0.133 0.324-0.205-0.054-0.249-0.122-0.131-0.202 0.175-0.108 0.264-0.188 0.264-0.242-0.029-0.108-0.089-0.148-0.177-0.122-0.087 0.081-0.161 0.122-0.22 0.122-0.118 0-0.103-0.055 0.044-0.162 0.176-0.081 0.162-0.148-0.044-0.201 0.03-0.136 0.089-0.149 0.178-0.041z" fill="#FCF19F"/> <path d="m34.58 21.092c0-0.107 0.029-0.201 0.088-0.282 0.059-0.107 0.073-0.215 0.044-0.323h0.265v0.484l-0.397 0.121z" fill="#77A32F"/> <path d="m30.659 26.465c0.06 0.188 0.177 0.255 0.353 0.201 0.353-0.054 0.543-0.081 0.573-0.081l-0.485 0.283c-0.206 0.107-0.352 0.216-0.44 0.322 0.03-0.106 0.015-0.215-0.044-0.322-0.059-0.108-0.088-0.202-0.088-0.283-0.03-0.08 0.014-0.12 0.131-0.12z" fill="#F6DE6F"/> <path d="m31.849 21.334c-0.558-0.215-0.998-0.295-1.321-0.242 0-0.08 0.177-0.121 0.528-0.121v-0.12c0.147-0.027 0.147-0.108 0-0.242h0.133c0.293 0.16 0.558 0.201 0.792 0.12-0.117 0.081-0.146 0.188-0.088 0.323 0.029 0.107 0.014 0.202-0.044 0.282z" fill="#F6DE6F"/> <path d="m28.545 21.778c0.177 0.108 0.265 0.188 0.265 0.243 0.293 0.027 0.588-0.041 0.881-0.202 0.177-0.081 0.411-0.202 0.704-0.363v0.08c-0.146 0.162-0.278 0.242-0.396 0.242l-0.528 0.243c-0.205 0.107-0.426 0.147-0.66 0.121-0.088-0.135-0.177-0.216-0.265-0.242v-0.122z" fill="#77A32F"/> <path d="m28.545 21.9c0.088 0.026 0.177 0.107 0.265 0.242 0.234 0.026 0.455-0.014 0.66-0.121l0.528-0.243c0.206 0.271 0.104 0.459-0.308 0.565-0.382 0.082-0.72 0.054-1.014-0.08-0.41-0.081-0.704-0.283-0.881-0.605l-0.132 0.161c-0.058 0.081-0.145 0.108-0.263 0.081 0-0.027-0.045-0.067-0.133-0.122 0.147-0.107 0.177-0.215 0.088-0.322-0.117-0.135-0.279-0.175-0.484-0.122 0.029-0.215 0.205-0.295 0.529-0.242 0.234 0.162 0.455 0.162 0.66 0 0 0.189 0.161 0.378 0.484 0.566v0.242z" fill="#F6DA31"/> <path d="m26.871 21.778c0.029-0.08 0.089-0.107 0.177-0.08 0.117 0.054 0.19 0.08 0.22 0.08 0.088 0.055 0.133 0.095 0.133 0.122 0.117 0.026 0.205 0 0.264-0.081l0.132-0.161c0.177 0.322 0.471 0.524 0.881 0.605-0.029 0.107-0.117 0.229-0.264 0.363v0.121l-0.265 0.121h-0.484c-0.029-0.081-0.132-0.121-0.309-0.121-0.265 0.027-0.426 0.027-0.484 0 0.147-0.215 0.249-0.377 0.309-0.484 0.117-0.188 0.059-0.351-0.176-0.485h-0.134z" fill="#B6181F"/> <path d="m33.127 20.608c-0.118 0.053-0.28 0.201-0.485 0.443-0.176 0.216-0.367 0.351-0.572 0.404 0.059 0.107 0.162 0.12 0.308 0.04 0.089-0.026 0.074 0.027-0.044 0.162 0.176 0.054 0.265-0.014 0.265-0.202 1e-3 0.029 0.03 0.124 0.089 0.282 0.029 0.054 0.131 0.108 0.308 0.162-0.177 0.08-0.367 0.04-0.573-0.122-0.176-0.134-0.322-0.134-0.44 0-0.264 0.271-0.572 0.351-0.925 0.243 0.029-0.162-0.059-0.256-0.264-0.283-0.235-0.054-0.368-0.121-0.397-0.202v-0.08c0.089-0.216 0.31-0.27 0.661-0.162 0.529 0.108 0.837 0.162 0.925 0.162 0.089 0 0.147-0.054 0.177-0.162 0.059-0.135 0.117-0.202 0.176-0.202-0.029-0.241-0.176-0.431-0.44-0.565-0.117-0.054-0.396-0.148-0.837-0.282-0.059-0.081-0.162-0.148-0.308-0.202-0.206-0.081-0.324-0.135-0.354-0.161-0.146-0.027-0.293-0.094-0.44-0.202l-0.352-0.282h0.132l0.264-0.364h0.133c0.059 0.162 0.221 0.323 0.484 0.484 0.323 0.162 0.515 0.283 0.573 0.364h0.66c0.088 0.026 0.162 0.107 0.221 0.242-0.353 0.081-0.338 0.202 0.044 0.363 0.382 0.188 0.588 0.148 0.616-0.121 0.233 0 0.365 0.081 0.395 0.243z" fill="#FCF19F"/> <path d="m33.522 20.486-0.132 0.484c-0.059 0-0.133-0.054-0.22-0.161-0.089-0.107-0.147-0.095-0.177 0.041 0.206 0.053 0.22 0.12 0.044 0.201-0.146 0.107-0.162 0.162-0.044 0.162 0.059 0 0.133-0.041 0.22-0.122 0.088-0.026 0.147 0.014 0.177 0.122 0 0.054-0.089 0.134-0.264 0.242-0.118 0.08-0.074 0.148 0.131 0.202l0.661 0.727v0.121c-0.146 0.027-0.264-0.014-0.352-0.121-0.118-0.161-0.221-0.242-0.31-0.242-0.087-0.135-0.176-0.216-0.264-0.242-0.177-0.054-0.278-0.108-0.308-0.162-0.059-0.158-0.088-0.253-0.089-0.282 0 0.188-0.089 0.256-0.265 0.202 0.118-0.135 0.133-0.188 0.044-0.162-0.146 0.08-0.249 0.067-0.308-0.04 0.205-0.054 0.396-0.188 0.572-0.404 0.205-0.242 0.367-0.391 0.485-0.443 0.146 0.134 0.249 0.053 0.308-0.243 0.088-0.27 0.029-0.431-0.177-0.484l0.265-0.122c0.118 0.055 0.147 0.122 0.089 0.202-0.059 0.081-0.044 0.135 0.044 0.162 0.058-0.162 0.19-0.242 0.396-0.242 0.059 0.161 0.131 0.337 0.22 0.525 0.029 0.134 0 0.322-0.089 0.564-0.175 0.027-0.308-0.026-0.396-0.161l-0.261-0.324zm-0.131 0.848c0.146-0.08 0.235-0.04 0.265 0.122-0.118 0.107-0.25 0.175-0.397 0.202-0.059-0.135-0.016-0.242 0.132-0.324z" fill="#FDF8CF"/> <path d="m33.655 21.456h0.264c0.147 0.08 0.323 0.107 0.529 0.08 0 0.271-0.221 0.431-0.661 0.485 0.088 0.134 0.132 0.256 0.132 0.363l-0.661-0.727c0.147-0.026 0.279-0.094 0.397-0.201z" fill="#77A32F"/> <path d="m34.448 21.536h0.528c0.059 0.162 0.19 0.364 0.396 0.606h0.264v0.363c-0.146 0.108-0.249 0.175-0.308 0.202-0.118 0.054-0.235 0.026-0.353-0.081v0.444c0 0.162-0.088 0.216-0.265 0.162l-0.793-0.728v-0.121c0-0.107-0.044-0.229-0.132-0.363 0.443-0.053 0.663-0.213 0.663-0.484z" fill="#732F20"/> <path d="m27.004 21.778c0.234 0.135 0.293 0.297 0.176 0.485-0.06 0.107-0.161 0.27-0.309 0.484 0.059 0.027 0.22 0.027 0.484 0 0.177 0 0.279 0.04 0.309 0.121-0.939 0-1.513-0.081-1.718-0.242v-0.242c0.118-0.027 0.22-0.121 0.308-0.283 0.089-0.188 0.206-0.295 0.353-0.323 0.029 0.081 0.073 0.122 0.133 0.122 0.088-0.027 0.132-0.067 0.132-0.122h0.132z" fill="#77A32F"/> <path d="m32.729 22.869c0.528 0.135 0.838 0.216 0.926 0.242 0.146 0 0.322 0.122 0.527 0.364l-0.264 0.12-0.132 0.162c-0.06 0.081-0.146 0.108-0.265 0.081-0.088-0.081-0.221-0.121-0.396-0.121 0.146-0.135 0.131-0.27-0.045-0.404-0.233-0.214-0.351-0.363-0.351-0.444z" fill="#FCF19F"/> <path d="m32.994 21.9c0.088 0.026 0.177 0.107 0.264 0.242-0.087 0.026-0.19 0.013-0.308-0.041-0.089-0.08-0.206-0.107-0.353-0.08 0.205 0.296 0.559 0.659 1.058 1.09-0.088-0.026-0.397-0.107-0.926-0.242 0.059-0.242-0.073-0.363-0.396-0.363v-0.121c0.147-0.027 0.279 0.013 0.396 0.121-0.028-0.108-0.161-0.215-0.396-0.323-0.234-0.081-0.353-0.216-0.353-0.404 0.118-0.134 0.265-0.134 0.44 0 0.207 0.161 0.397 0.201 0.574 0.121z" fill="#F6DE6F"/> <path d="m31.629 22.385c-0.323-0.027-0.515 0.013-0.573 0.121h-0.792c-0.03-0.188 0.073-0.296 0.308-0.323 0.293-0.027 0.455-0.081 0.484-0.161 0.353 0.107 0.661 0.027 0.925-0.243 0 0.188 0.118 0.323 0.353 0.404 0.235 0.108 0.368 0.215 0.396 0.323-0.117-0.108-0.249-0.148-0.396-0.121-0.06 0.027-0.294 0.027-0.705 0z" fill="#F6DA31"/> <path d="m33.258 22.143c0.089 0 0.191 0.081 0.31 0.242 0.088 0.107 0.205 0.148 0.352 0.121l0.793 0.728c0.235 0.161 0.543 0.444 0.925 0.848v0.121c-0.176 0.027-0.308-0.027-0.396-0.161-0.029-0.162-0.073-0.27-0.132-0.323-0.117 0.026-0.103 0.175 0.044 0.444 0.146 0.242 0.177 0.377 0.088 0.403-0.088-0.026-0.176-0.107-0.264-0.242 0.088-0.08 0.059-0.202-0.088-0.363-0.147-0.162-0.294-0.282-0.44-0.364h-0.133c0-0.08-0.044-0.12-0.133-0.12-0.205-0.242-0.381-0.364-0.527-0.364-0.499-0.431-0.853-0.794-1.058-1.09 0.146-0.027 0.264 0 0.353 0.08 0.115 0.052 0.219 0.066 0.306 0.04z" fill="#F6DA31"/> <path d="m35.24 24.565c0.089-0.026 0.059-0.161-0.088-0.403-0.146-0.27-0.161-0.418-0.044-0.444 0.059 0.054 0.103 0.161 0.132 0.323 0.089 0.134 0.221 0.188 0.396 0.161 0.059 0.161 0.015 0.283-0.132 0.363-0.175 0.109-0.264 0.109-0.264 0z" fill="#F6DE6F"/> <path d="m34.448 23.596c0.146 0.082 0.293 0.202 0.44 0.364 0.146 0.161 0.176 0.283 0.088 0.363-0.029 0.242-0.206 0.458-0.528 0.646-0.382 0.215-0.603 0.391-0.661 0.525-0.146 0.054-0.294 0.04-0.44-0.04-0.176-0.055-0.338-0.082-0.485-0.082 0.471-0.269 0.809-0.484 1.014-0.646 0.353-0.242 0.588-0.539 0.705-0.889-0.089-0.079-0.133-0.159-0.133-0.241z" fill="#732F20"/> <path d="m28.677 22.264c0.294 0.134 0.632 0.162 1.014 0.08 0.411-0.106 0.514-0.295 0.308-0.565 0.118 0 0.251-0.08 0.396-0.242 0.029 0.081 0.162 0.148 0.397 0.202 0.205 0.027 0.293 0.121 0.264 0.283-0.029 0.08-0.191 0.134-0.484 0.161-0.234 0.027-0.338 0.135-0.308 0.323h1.321c-0.147 0.216-0.588 0.377-1.321 0.484-0.266-0.026-0.544-0.121-0.838-0.282-0.323-0.188-0.572-0.296-0.749-0.323-0.059 0.161-0.146 0.242-0.264 0.242 0.147-0.135 0.234-0.256 0.264-0.363z" fill="#FDF8CF"/> <path d="m32.333 22.385v0.121c-0.088 0.135-0.338 0.242-0.748 0.323-0.44 0.054-0.706 0.147-0.793 0.282 0.234 0 0.793-0.08 1.674-0.242 0.088 0.081 0.146 0.216 0.176 0.404 0.088 0.162 0.25 0.229 0.485 0.202-0.177 0.134-0.426 0.134-0.75 0-0.382-0.135-0.689-0.176-0.925-0.122 0.059 0.054 0.191 0.136 0.396 0.242 0.177 0.082 0.294 0.162 0.353 0.243 0.03 0.296-0.132 0.418-0.484 0.363 0-0.081 0.059-0.135 0.176-0.161 0.147-0.027 0.206-0.095 0.177-0.202-0.353-0.161-0.632-0.256-0.837-0.283-0.354-0.107-0.588-0.014-0.705 0.283-0.264 0-0.396 0.04-0.396 0.121-0.118 0.081-0.293 0.121-0.528 0.121 0 0.162 0.044 0.27 0.132 0.323 0.089 0.027 0.176 0 0.264-0.081v0.364c-0.264-0.082-0.484-0.297-0.66-0.646-0.235-0.432-0.411-0.7-0.528-0.808 0.088-0.108 0.264-0.068 0.528 0.12 0.294 0.216 0.515 0.216 0.66 0 0.177-0.026 0.266-0.147 0.266-0.363 0.733-0.107 1.174-0.269 1.321-0.484h-0.529c0.059-0.108 0.25-0.148 0.573-0.121 0.409 0.028 0.643 0.028 0.702 1e-3z" fill="#B6181F"/> <path d="m31.32 26.101c-0.117-0.161-0.25-0.242-0.396-0.242-0.088-0.081-0.234-0.161-0.44-0.243-0.234-0.107-0.396-0.188-0.485-0.242-0.029-0.107-0.103-0.175-0.22-0.201-0.176-0.054-0.279-0.095-0.309-0.121 0.088-0.081 0.118-0.148 0.088-0.202-0.029-0.055-0.059-0.027-0.088 0.081l-0.044-0.324c-0.028-0.16-0.146-0.255-0.353-0.282 0-0.135-0.059-0.256-0.176-0.363-0.117-0.162-0.19-0.282-0.221-0.364v-0.608c-0.176 0.135-0.264 0.337-0.264 0.605-0.117-0.215-0.235-0.309-0.353-0.282-0.205 0.135-0.382 0.229-0.528 0.282 0.088-0.08 0.132-0.16 0.132-0.242v-0.12c0.088-0.108 0.206-0.148 0.353-0.122 0.088 0.027 0.22 0.067 0.396 0.122v-0.364c0.234 0 0.499 0.081 0.793 0.242 0.264 0.188 0.528 0.27 0.792 0.242-0.146 0.216-0.366 0.216-0.66 0-0.265-0.188-0.44-0.229-0.528-0.12 0.117 0.107 0.293 0.376 0.528 0.808 0.176 0.35 0.396 0.564 0.66 0.646 0 0.215 0.177 0.377 0.529 0.484 0.029 0.026 0.162 0.067 0.396 0.121 0.146 0.026 0.235 0.094 0.265 0.202l0.792 0.605c-0.088-0.377 0.03-0.417 0.353-0.121 0.029 0.161-0.029 0.31-0.176 0.444-0.146 0.161-0.294 0.175-0.44 0.041-0.087-0.16-0.22-0.281-0.396-0.362z" fill="#F6DE6F"/> <path d="m32.333 22.506c0.323 0 0.455 0.121 0.396 0.363 0 0.081 0.117 0.229 0.353 0.444 0.176 0.135 0.19 0.27 0.045 0.404 0.175 0 0.308 0.04 0.396 0.121-0.352 0.242-0.749 0.431-1.189 0.565-0.528 0.161-0.998 0.175-1.409 0.041-0.03-0.082-0.161-0.122-0.396-0.122 0-0.08 0.132-0.121 0.396-0.121-0.176-0.161-0.44-0.242-0.793-0.242 0-0.081 0.133-0.121 0.396-0.121 0.206-0.027 0.411 0.027 0.617 0.161 0.234 0.135 0.426 0.202 0.572 0.202 0.353 0.055 0.515-0.067 0.484-0.363-0.059-0.081-0.176-0.161-0.353-0.243-0.205-0.106-0.338-0.188-0.396-0.242 0.235-0.054 0.543-0.013 0.925 0.122 0.324 0.134 0.573 0.134 0.75 0-0.235 0.026-0.397-0.04-0.485-0.202-0.029-0.188-0.088-0.323-0.176-0.404-0.881 0.162-1.439 0.242-1.674 0.242 0.087-0.135 0.353-0.229 0.793-0.282 0.41-0.081 0.66-0.188 0.748-0.323z" fill="#B6181F"/> <path d="m35.637 24.081c-0.382-0.403-0.689-0.687-0.925-0.848 0.177 0.054 0.265 0 0.265-0.162v-0.444c0.117 0.107 0.234 0.135 0.353 0.081 0.059-0.027 0.161-0.094 0.308-0.202 0.411 0.08 0.559 0.282 0.44 0.605-0.058 0.189-0.206 0.513-0.441 0.97z" fill="#77A32F"/> <path d="m19.295 22.869c0.029-0.135 0.131-0.175 0.308-0.121 0.177 0.027 0.294 0.068 0.353 0.121-0.294 0.378-0.69 0.538-1.19 0.484 0.118-0.134 0.28-0.201 0.485-0.201 0.235-0.027 0.426-0.081 0.572-0.162-0.029-0.054-0.103-0.094-0.221-0.121h-0.307z" fill="#FCF19F"/> <path d="m25.682 22.99c0.206 0 0.426 0.068 0.661 0.202 0.234 0.135 0.455 0.188 0.661 0.161-0.118 0.216-0.295 0.378-0.529 0.485 0.089-0.081 0.132-0.161 0.132-0.243-0.353 0.082-0.616 0.243-0.793 0.485h-0.264c0.029-0.054 0.029-0.283 0-0.687-0.029-0.296 0.015-0.472 0.132-0.525v0.122z" fill="#77A32F"/> <path d="m29.162 24.565c-0.147-0.161-0.265-0.242-0.353-0.242-0.029 0.108 0 0.216 0.088 0.323 0.059 0.081 0.073 0.175 0.044 0.283-0.323-0.136-0.616-0.176-0.881-0.122h-0.926c-0.205-0.026 0-0.147 0.617-0.362 0.499-0.188 0.72-0.108 0.661 0.242l0.396-0.485c-0.177-0.216-0.265-0.418-0.265-0.606h0.132c0.03 0.082 0.104 0.202 0.221 0.364 0.117 0.107 0.176 0.229 0.176 0.363l0.265 0.242c-0.028 0.109-0.087 0.109-0.175 0z" fill="#FDF8CF"/> <path d="m26.21 24.808c0.499-0.35 0.939-0.753 1.322-1.212 0.146-0.054 0.323-0.147 0.528-0.282 0.117-0.026 0.235 0.067 0.353 0.282 0-0.269 0.088-0.471 0.264-0.605v0.605h-0.132c0 0.188 0.088 0.391 0.265 0.606l-0.396 0.485c0.059-0.351-0.162-0.431-0.661-0.242-0.617 0.215-0.822 0.336-0.617 0.362l-0.264 0.122c-0.44 0.053-0.661 0.282-0.661 0.686-0.117 0-0.19-0.094-0.22-0.282-0.029-0.161-0.088-0.256-0.177-0.282 0.03-0.055 0.104-0.095 0.221-0.121 0.116 0 0.175-0.041 0.175-0.122z" fill="#FCF19F"/> <path d="m26.475 23.839c-0.088 0-0.19 0.067-0.309 0.202-0.087 0.134-0.205 0.188-0.353 0.161v-0.121c0.177-0.242 0.44-0.403 0.793-0.485 0 0.082-0.043 0.162-0.131 0.243z" fill="#C4C2C1"/> <path d="m33.919 23.596 0.264-0.12c0.089 0 0.133 0.04 0.133 0.12-0.205 0.862-0.954 1.387-2.246 1.576 0.646-0.27 1.058-0.498 1.232-0.687 0.206-0.297 0.411-0.592 0.617-0.889z" fill="#732F20"/> <path d="m31.452 25.051c-0.059 0.107-0.278 0.107-0.66 0-0.265-0.081-0.354-0.081-0.265 0v0.121c-0.353-0.107-0.529-0.27-0.529-0.484v-0.485c0.118 0 0.266 0.041 0.44 0.121 0.147 0.108 0.31 0.148 0.485 0.122 0.411 0.134 0.881 0.12 1.409-0.041 0.44-0.135 0.838-0.323 1.189-0.565 0.118 0.027 0.205 0 0.265-0.081l0.132-0.162c-0.206 0.297-0.411 0.593-0.617 0.89-0.175 0.188-0.586 0.417-1.232 0.687-0.264-2e-3 -0.469-0.043-0.617-0.123z" fill="#77A32F"/> <path d="m32.069 25.172c0.059 0.107 0.146 0.255 0.264 0.443h0.265c0.353-0.026 0.484 0.095 0.396 0.364h-0.661c-0.322-0.296-0.44-0.256-0.353 0.121l-0.792-0.605c0.059 0 0.146 0.026 0.264 0.08 0.088 0.054 0.177 0.068 0.265 0.04 0.029-0.107-0.015-0.201-0.132-0.282-0.118-0.054-0.162-0.148-0.133-0.282 0.148 0.08 0.353 0.121 0.617 0.121z" fill="#F6DA31"/> <path d="m29.47 25.495c-0.029 0.134-0.234 0.094-0.616-0.122-0.411-0.215-0.676-0.403-0.793-0.565 0.265-0.054 0.558-0.014 0.881 0.122 0.029-0.108 0.015-0.202-0.044-0.283-0.088-0.107-0.117-0.215-0.088-0.323 0.088 0 0.205 0.081 0.353 0.242 0.088 0.108 0.146 0.108 0.176 0l-0.265-0.242c0.206 0.027 0.324 0.122 0.353 0.282l0.044 0.324c0.029-0.108 0.059-0.136 0.088-0.081 0.03 0.054 0 0.121-0.088 0.202-0.059 0.107-0.117 0.188-0.176 0.242-0.03 0.054 0.028 0.121 0.175 0.202z" fill="#FCF19F"/> <path d="m30.924 24.445c-0.176 0.026-0.338-0.014-0.485-0.122-0.175-0.08-0.322-0.121-0.44-0.121v0.121c-0.088 0.081-0.175 0.108-0.264 0.081-0.088-0.054-0.132-0.161-0.132-0.323 0.235 0 0.41-0.04 0.528-0.121 0.353 0 0.617 0.081 0.793 0.242-0.265 0-0.396 0.041-0.396 0.121 0.235 0 0.366 0.04 0.396 0.122z" fill="#C4C2C1"/> <path d="m25.682 22.869c-0.117 0.054-0.161 0.229-0.132 0.525 0.029 0.403 0.029 0.633 0 0.687h0.264v0.121c-0.029 0.188 0.015 0.391 0.133 0.605h0.264c0 0.081-0.059 0.122-0.176 0.122-0.117 0.026-0.19 0.066-0.221 0.121 0.089 0.026 0.147 0.121 0.177 0.282 0.029 0.188 0.103 0.282 0.22 0.282 0.206 0.377 0.382 0.579 0.529 0.606v0.121c-0.06 0.242-0.104 0.364-0.133 0.364-0.499-0.324-0.852-0.835-1.057-1.535-0.235-0.404-0.309-0.97-0.221-1.696 0.089-0.728 0.294-1.091 0.617-1.091v0.242c-0.058 0.163-0.147 0.244-0.264 0.244z" fill="#FDF8CF"/> <path d="m26.21 25.615c0-0.403 0.221-0.633 0.661-0.686-0.206 0.08-0.352 0.215-0.44 0.403-0.117 0.216-0.059 0.391 0.176 0.525l0.133 0.363c-0.148-0.026-0.324-0.228-0.53-0.605z" fill="#F6DE6F"/> <path d="m30.395 26.585c-0.352-0.377-0.571-0.699-0.66-0.97-0.029-0.107 0.059-0.188 0.264-0.242 0.089 0.054 0.251 0.135 0.485 0.242 0.206 0.082 0.353 0.162 0.44 0.243-0.294 0.134-0.471 0.376-0.529 0.727z" fill="#732F20"/> <path d="m26.606 25.858c0.088 0 0.177-0.067 0.265-0.202 0.118-0.135 0.249-0.188 0.396-0.161 0 0.08-0.088 0.12-0.264 0.12 0.058 0.135 0.249 0.202 0.571 0.202 0.266-0.026 0.5-0.094 0.706-0.202 0.176 0.055 0.264 0.014 0.264-0.12 0.382 0.188 0.603 0.35 0.661 0.484-0.118 0-0.25 0.04-0.396 0.121-0.118 0.107-0.25 0.148-0.396 0.121 0.294 0.512 0.734 0.674 1.321 0.485-0.088-0.082-0.132-0.162-0.132-0.242 0.235 0.053 0.322 0.215 0.265 0.483-0.295 0.027-0.984 0.148-2.071 0.364v-0.121h0.133l-0.309-0.524c-0.176-0.188-0.382-0.296-0.616-0.323v0.122l-0.265-0.122v-0.121l-0.133-0.364z" fill="#77A32F"/> <path d="m29.206 25.979c0.117-0.027 0.191 0.04 0.22 0.202 0.029 0.188 0.088 0.283 0.177 0.283 0 0.08 0.044 0.16 0.132 0.242-0.587 0.188-1.027 0.026-1.321-0.485 0.146 0.027 0.278-0.014 0.396-0.121 0.146-0.08 0.278-0.121 0.396-0.121z" fill="#732F20"/> <path d="m31.452 25.575c-0.117-0.054-0.205-0.08-0.264-0.08-0.029-0.108-0.118-0.176-0.265-0.202-0.234-0.054-0.367-0.095-0.396-0.121v-0.121c-0.089-0.081 0-0.081 0.265 0 0.382 0.107 0.602 0.107 0.66 0-0.029 0.134 0.015 0.229 0.133 0.282 0.117 0.081 0.161 0.175 0.132 0.282-0.088 0.029-0.177 0.014-0.265-0.04z" fill="#732F20"/> <path d="m27.268 25.495c0.088-0.081 0.308-0.122 0.661-0.122 0.322 0 0.528 0.041 0.616 0.122 0 0.134-0.088 0.175-0.264 0.12-0.03-0.08-0.177-0.12-0.44-0.12-0.323 0.026-0.515 0.026-0.573 0z" fill="#FCF19F"/> <path d="m26.739 26.827c0.176 0.055 0.734 0.337 1.674 0.849-0.411 0-0.881-0.161-1.409-0.485-0.148-0.134-0.235-0.255-0.265-0.364z" fill="#FDF8CF"/> <path d="m28.941 20.486c0.146-0.135 0.411-0.188 0.793-0.161 0.411 0.026 0.588 0.161 0.529 0.403h-0.529v-0.12c-0.264-0.135-0.528-0.175-0.793-0.122z" fill="#FDF8CF"/> <path d="m26.871 21.334c0.205-0.053 0.367-0.013 0.484 0.122 0.089 0.107 0.06 0.215-0.088 0.322-0.029 0-0.103-0.026-0.22-0.08-0.088-0.027-0.147 0-0.177 0.08 0 0.055-0.044 0.095-0.132 0.122-0.06 0-0.104-0.041-0.133-0.122v-0.12c0.178-0.027 0.266-0.135 0.266-0.324z" fill="#732F20"/> <path d="m31.98 21.456c-0.088 0-0.396-0.054-0.925-0.162-0.352-0.107-0.572-0.054-0.661 0.162-0.293 0.161-0.527 0.282-0.704 0.363-0.293 0.161-0.588 0.229-0.881 0.202 0-0.055-0.088-0.135-0.265-0.243v-0.12c-0.176-0.242-0.309-0.431-0.396-0.566 0.294-0.053 0.47-0.135 0.528-0.241 0.323-0.082 0.646-0.068 0.97 0.04 0.411 0.135 0.705 0.201 0.881 0.201 0.323-0.053 0.764 0.027 1.321 0.242 0.059-0.08 0.073-0.175 0.044-0.282-0.059-0.135-0.029-0.242 0.088-0.323-0.234 0.081-0.499 0.04-0.792-0.12 0-0.055-0.059-0.136-0.177-0.243-0.118-0.054-0.103-0.094 0.044-0.121 0.44 0.134 0.72 0.229 0.837 0.282 0.265 0.135 0.411 0.324 0.44 0.565-0.059 0-0.117 0.067-0.176 0.202-0.028 0.108-0.087 0.162-0.176 0.162z" fill="#B6181F"/> <path d="m27.135 23.233c-0.175-0.027-0.264-0.108-0.264-0.243 0.089-0.026 0.323-0.026 0.704 0 0.324 0.027 0.515-0.014 0.573-0.121l0.265-0.121v0.485c-0.177-0.055-0.309-0.095-0.396-0.122-0.146-0.026-0.265 0.014-0.353 0.122h-0.529z" fill="#FCF19F"/> <path d="m32.861 25.373c0 0.108-0.088 0.188-0.264 0.242h-0.265c-0.117-0.188-0.205-0.336-0.264-0.443 1.292-0.189 2.041-0.714 2.246-1.576h0.133c0 0.082 0.044 0.162 0.132 0.243-0.117 0.35-0.353 0.646-0.705 0.889-0.204 0.161-0.542 0.376-1.013 0.645z" fill="#B6181F"/> <path d="m29.998 25.373c-0.205 0.054-0.293 0.135-0.264 0.242-0.088-0.08-0.177-0.12-0.265-0.12-0.146-0.081-0.205-0.148-0.176-0.202 0.059-0.054 0.117-0.135 0.176-0.242 0.029 0.026 0.133 0.067 0.309 0.121 0.118 0.026 0.191 0.094 0.22 0.201z" fill="#77A32F"/> <path d="m28.281 25.615c-0.206 0.108-0.44 0.176-0.706 0.202-0.322 0-0.514-0.067-0.571-0.202 0.176 0 0.264-0.04 0.264-0.12 0.059 0.026 0.25 0.026 0.573 0 0.263 0 0.41 0.04 0.44 0.12z" fill="#FDF8CF"/> <path d="m30.924 25.858c0.146 0 0.279 0.081 0.396 0.242-0.059 0.188-0.279 0.31-0.661 0.364-0.117 0-0.161 0.04-0.132 0.12h-0.133c0.059-0.35 0.236-0.592 0.53-0.726z" fill="#B6181F"/> <path d="m26.431 25.333c0.089-0.188 0.234-0.323 0.44-0.403l0.264-0.122h0.926c0.117 0.162 0.382 0.351 0.793 0.565 0.382 0.216 0.587 0.256 0.616 0.122 0.088 0 0.177 0.04 0.265 0.12 0.089 0.271 0.309 0.593 0.66 0.97h0.133c0 0.081 0.029 0.175 0.088 0.283 0.059 0.107 0.074 0.216 0.044 0.322-0.206 0.082-0.352 0.082-0.44 0-0.117-0.106-0.235-0.188-0.352-0.242 0.058-0.269-0.029-0.431-0.265-0.483-0.089 0-0.147-0.095-0.177-0.283-0.028-0.162-0.103-0.229-0.22-0.202-0.059-0.135-0.279-0.296-0.661-0.484-0.088-0.081-0.294-0.122-0.616-0.122-0.354 0-0.573 0.041-0.661 0.122-0.147-0.027-0.278 0.026-0.396 0.161-0.088 0.135-0.177 0.202-0.265 0.202-0.235-0.135-0.294-0.31-0.176-0.526z" fill="#F6DA31"/> <path d="m35.945 22.143c-0.021-0.084-0.043-0.179-0.065-0.283 0.075-0.053 0.156-0.081 0.241-0.081 0 0.161-0.058 0.283-0.176 0.364zm-0.065-0.284c-0.02 0.024-0.042 0.052-0.066 0.081-0.089 0.108-0.147 0.175-0.177 0.202h-0.264c-0.206-0.242-0.338-0.444-0.396-0.606 0.059 0 0.176 0.04 0.353 0.122 0.146 0.054 0.293 0.054 0.44 0 0.059-0.216-0.045-0.351-0.309-0.404-0.323-0.081-0.484-0.175-0.484-0.283v-0.484c0.44 0.108 0.719 0.431 0.837 0.97 0.025 0.148 0.047 0.283 0.066 0.402zm0.241 0.768c0.059 0.054 0.191 0.175 0.397 0.363 0.205 0.162 0.308 0.297 0.308 0.404s-0.176 0.417-0.528 0.929c-0.353 0.484-0.603 0.781-0.748 0.889-1.763 1.266-3.437 2.127-5.022 2.585-0.147-0.027-0.294-0.014-0.44 0.04-0.147 0.055-0.264 0.081-0.353 0.081-0.146-0.026-0.294-0.013-0.44 0.04-0.146 0.054-0.265 0.081-0.353 0.081-0.176 0.027-0.382 0.014-0.616-0.04-0.235-0.081-0.455-0.107-0.661-0.081h-0.265c-0.471-0.188-1.161-0.403-2.071-0.646-1.087-0.271-1.791-0.459-2.113-0.565 0-0.108-0.074-0.176-0.221-0.202-0.177-0.054-0.235-0.148-0.177-0.283 0.412 0 1.072 0.148 1.982 0.444 0.793 0.242 1.395 0.336 1.806 0.282-0.117 0.081-0.176 0.216-0.176 0.404-0.029 0.188 0.029 0.216 0.176 0.08-0.087-0.026-0.117-0.066-0.087-0.12 0.058-0.054 0.131-0.095 0.22-0.122l0.044 0.162c0 0.054 0.029 0.08 0.088 0.08l0.133-0.242c0.528 0.324 0.998 0.485 1.409 0.485-0.939-0.512-1.498-0.794-1.674-0.849-0.118 0-0.162-0.04-0.133-0.12 0.029 0 0.073-0.122 0.133-0.364l0.265 0.122c0.176 0.295 0.44 0.537 0.792 0.726v0.122c1.087-0.216 1.776-0.337 2.071-0.364 0.116 0.054 0.234 0.136 0.352 0.242 0.089 0.082 0.234 0.082 0.44 0 0.089-0.106 0.234-0.215 0.44-0.322l0.485-0.283c-0.03-0.08 0.015-0.12 0.132-0.12 0.146 0.134 0.294 0.12 0.44-0.041 0.146-0.135 0.205-0.283 0.176-0.444h0.661c0.088-0.27-0.044-0.391-0.396-0.364 0.176-0.054 0.264-0.134 0.264-0.242 0.147 0 0.31 0.027 0.485 0.082 0.146 0.08 0.294 0.094 0.44 0.04 0.059-0.135 0.279-0.311 0.661-0.525 0.322-0.188 0.499-0.404 0.528-0.646 0.088 0.135 0.176 0.216 0.264 0.242 0 0.108 0.089 0.108 0.265 0 0.146-0.08 0.19-0.202 0.132-0.363v-0.121c0.235-0.457 0.383-0.781 0.44-0.97 0.118-0.323-0.029-0.525-0.44-0.605v-0.121c0.147-0.081 0.25-0.161 0.309-0.242 0.067 0.257 0.125 0.418 0.176 0.482z" fill="#B8952E"/> <path d="m36.915 23.313c0.029 0.27 0.015 0.404-0.044 0.404-0.089 0-0.324-0.176-0.706-0.525-0.059-0.404-0.146-0.7-0.264-0.889-0.382-0.323-0.617-0.633-0.705-0.929-0.059-0.161-0.161-0.296-0.308-0.404-0.265-0.215-0.44-0.362-0.529-0.444-0.47-0.673-0.852-1.063-1.146-1.171-0.176-0.054-0.353-0.081-0.527-0.081h-0.221l0.264-0.605 0.793 0.323c0.588 0.296 1.116 0.659 1.586 1.091 1.057 0.969 1.615 1.776 1.674 2.423 0 0.027 0.044 0.296 0.133 0.807z" fill="#B8952E"/> <path d="m22.555 15.922c-2.232-0.107-3.569-0.161-4.009-0.161-1.497-0.028-2.643 0.067-3.436 0.282 0.646-0.592 1.865-0.888 3.656-0.888 1.703 0 2.966 0.256 3.789 0.767z" fill="#FFEBA6"/> <path d="m20.22 22.506c0.353-0.08 0.543 0 0.573 0.242 0 0.242-0.162 0.391-0.485 0.444-0.323 0.055-0.528-0.014-0.616-0.202-0.06-0.215 0.117-0.376 0.528-0.484z" fill="#F5CD53"/> <path d="m12.688 19.8c0.235-0.107 0.586 0 1.057 0.323 0.47 0.296 0.514 0.512 0.132 0.646-0.412 0.162-0.778 0.082-1.102-0.242-0.322-0.297-0.352-0.539-0.087-0.727z" fill="#F5CD53"/> <path d="m15.814 19.759c0.264-0.188 0.514-0.201 0.749-0.04 0.235 0.188 0.206 0.377-0.087 0.565-0.264 0.216-0.499 0.229-0.705 0.041-0.206-0.216-0.191-0.404 0.043-0.566z" fill="#F5CD53"/> <path d="m26.915 16.932c-2.085-0.431-3.348-0.673-3.788-0.726l-2.907-0.202c-0.44-0.027-0.763-0.014-0.969 0.04-0.118 0.054-0.44 0.229-0.97 0.525-0.323 0.215-0.646 0.256-0.969 0.121-0.499-0.162-0.91-0.242-1.234-0.242-0.499 0.026-1.233 0.229-2.202 0.606l-1.278 0.565 0.926-0.97c0.175-0.188 1.027-0.565 2.554-1.131l1.806-0.121c1.263-0.081 2.056-0.108 2.379-0.081l6.652 1.616z" fill="#FADF88"/> <path d="m11.718 21.98 2.423 0.849c1.732 0.619 2.952 1.01 3.656 1.171 1.38 0.351 2.129 0.525 2.247 0.525 0.793 0.108 1.66-0.026 2.599-0.404 0.852-0.35 1.57-0.848 2.158-1.494 0.587-0.727 1.072-1.279 1.453-1.656 0.646-0.619 1.058-1.01 1.234-1.171 0.264-0.242 0.558-0.391 0.881-0.444 0.499-0.054 0.91-0.04 1.233 0.041-0.999 0.215-1.762 0.538-2.291 0.969-0.146 0.107-0.896 0.889-2.246 2.343-0.294 0.296-0.573 0.619-0.838 0.97-0.264 0.269-0.646 0.524-1.145 0.768-1.263 0.592-2.555 0.713-3.877 0.362-0.44-0.107-1.16-0.362-2.158-0.767-0.764-0.297-1.292-0.445-1.586-0.445-0.323 0-1.042-0.269-2.158-0.808l-1.585-0.809z" fill="#E0B538"/> <path d="m10.229 22.868c0.541-0.189 1.011-0.284 1.409-0.284l3.203 1.38c2.22 0.945 3.573 1.474 4.057 1.582 0.768 0.161 2.534 0.812 5.295 1.946-0.939 0.082-1.708 0.122-2.306 0.122-0.398 0-0.74 0.121-1.025 0.365-0.199 0.135-0.512 0.406-0.939 0.812-0.313 0.271-0.741 0.243-1.281-0.082-0.541-0.405-0.926-0.676-1.153-0.811-0.285-0.189-0.541-0.189-0.768 0-0.058 0.026-0.328 0.284-0.812 0.771-0.427 0.433-0.94 0.217-1.537-0.648-0.769 0-1.452 0.04-2.05 0.121-0.37 0.055-0.441 0.014-0.213-0.121 0.484-0.325 0.769-0.542 0.854-0.649 0.228-0.216 0.356-0.434 0.385-0.649v-0.284c-0.371 0.189-0.769 0.325-1.196 0.406-0.854 0.162-1.409 0.026-1.666-0.406-0.256-0.433-0.184-0.811 0.213-1.136l0.684-0.405c-0.769-0.271-1.367-0.663-1.794-1.176-0.285-0.326-0.071-0.611 0.64-0.854z" fill="#77A32F"/> <path d="m11.126 23.355-0.256-0.163c0.171 0.271 1.253 0.703 3.246 1.298-0.768 0.136-1.209 0.23-1.324 0.284 0.313 0.135 0.868 0.217 1.666 0.243-0.143 0.865 1.551 1.394 5.082 1.583-0.085 0.324-0.299 0.555-0.64 0.689-0.314 0.108-0.655 0.121-1.025 0.04-0.028-0.271-0.284-0.486-0.769-0.649-0.484-0.188-0.869-0.216-1.153-0.08-0.143 0.054-0.271 0.311-0.385 0.771-0.113 0.324-0.37 0.446-0.768 0.364-0.058-0.27-0.072-0.459-0.043-0.567-0.626 0.514-0.982 0.514-1.068 0 0.029-0.703-0.014-1.108-0.127-1.217-0.228-0.216-0.655-0.257-1.281-0.122-0.712 0.243-1.182 0.365-1.41 0.365 0.256-0.352 0.57-0.648 0.94-0.893-0.342-0.46-0.527-0.933-0.555-1.42-0.655 0.108-0.911-0.014-0.769-0.364 0.141-0.406 0.354-0.46 0.639-0.162z" fill="#8DC238"/> <path d="m11.126 22.827-0.127-0.243c0.996 0.108 2.121 0.433 3.374 0.974 0.711 0.324 1.793 0.812 3.245 1.46 0.768 0.298 2.007 0.649 3.715 1.055 1.68 0.379 2.918 0.73 3.716 1.055-0.171 0.298-0.57 0.487-1.196 0.568-0.711 0.054-1.196 0.108-1.452 0.162-1.338 0.541-2.334 0.839-2.989 0.893 1.281-1.001 2.008-1.582 2.178-1.744-0.455-0.298-1.124-0.487-2.006-0.568-0.997-0.054-1.694-0.176-2.093-0.365-0.228-0.352-0.441-0.567-0.641-0.648-0.113-0.054-0.413-0.136-0.896-0.243-0.399 0.054-0.669 0.081-0.812 0.081-0.256 0-0.341-0.244-0.256-0.73-0.256-0.027-0.556-0.135-0.897-0.324-0.398-0.271-0.697-0.433-0.896-0.486-0.143-0.028-0.727-0.055-1.751-0.082-0.768 0-1.267-0.149-1.495-0.446 0.143-0.136 0.385-0.229 0.727-0.283 0.253-0.086 0.439-0.112 0.552-0.086z" fill="#638727"/> </g> <path d="m37.262 26.768c-0.387 0.248-1.137 0.373-2.252 0.373-0.046 0.869-0.648 1.105-1.809 0.708-1.069-0.397-1.569-0.137-1.501 0.782-0.41-0.074-1.058-0.111-1.945-0.111 2.139-0.92 4.186-2.485 6.142-4.697l-0.341-0.298c0.522-0.075 1.023-0.075 1.501 0 0.773 0.174 1.138 0.459 1.093 0.856-0.023 0.199-0.194 0.436-0.512 0.709-0.433 0.348-0.683 0.571-0.751 0.671 0.181 0.175 0.306 0.51 0.375 1.007z" clip-rule="evenodd" fill="#638727" fill-rule="evenodd"/> </svg>