<?xml version='1.0' encoding='utf-8'?>
<svg xmlns="http://www.w3.org/2000/svg" version="1.1" viewBox="0 0 500 500"> <g transform="translate(0 -151.98)"> <path d="m384.92 401.01-0.35498-12.868c1.2225-0.17295 3.0234 0.68997 5.014 2.3517 2.4346 5.898-1.375 8.0493-4.659 10.516z" fill="#a24533"/> <path d="m235.88 278.73c9.2562-14.999 14.467-35.214 14.199-50.939l11.182-9.7618c-3.6332 17.187-9.4327 39.372-21.476 59.813l-1.4199 3.7272s-4.7921 1.0649-2.4848-2.8398z" fill="#84963e"/> <path d="m94.758 396.39s-3.1742 5.5608-3.0863 8.9179c0 0-7.7437 0.19094-7.2034-1.7287 0.70995-2.5225 3.1051-4.1288 5.3237-5.2825s4.9661-1.9067 4.9661-1.9067z" fill="#a24533"/> <path d="m90.873 405.63s1.4199-46.856 117.14-57.506c115.72-10.649 165.36 10.05 177.49 40.467 8.2182 20.613-7.0995 31.238-7.0995 31.238s-57.506 33.367-139.15 29.818c-81.644-3.5497-127.16-15.798-135.6-22.008-14.257-10.484-12.779-22.008-12.779-22.008z" fill="#fee19c"/> <path transform="translate(0 151.98)" d="m309.7 195.98c-12.497 19.702 23.233 35.294 8.0703 58.039-7.0274 10.541-21.196 9.8448-30.623 14.559-6.4892 3.2446-19.829 15.187-30.121 10.041-5.1872-2.5936-17.208-9.469-24.096-6.0254-5.1873 2.5937-16.275 11.692-23.594 8.0332-6.4167-3.2084-13.634-5.6023-19.578-11.547-1.7545-1.7545-23.259-0.33676-24.6 1.0039-4.4639 4.4639-12.461 8.2167-18.799 10.568 2.8476-0.60645 2.4644 3.3442 1.3184 7.6641 22.366 4.0242 52.855 7.6701 91.572 9.3535 81.644 3.5497 139.15-29.818 139.15-29.818s15.318-10.625 7.0996-31.238c-7.6989-19.31-30.553-34.691-75.801-40.633zm-163.34 84.672c-0.37101 0.07901-0.795 0.23343-1.2812 0.47656 0.41081-0.14556 0.85349-0.31783 1.2812-0.47656z" fill="#eacc8b"/> <path transform="translate(0 151.98)" d="m154 211.27c-7.0056 0.02634-15.521 1.1916-19.902 2.6738-2.0108 0.68034-4.3016 1.0306-6.7207 1.2812-35.849 17.139-36.502 38.422-36.502 38.422s-0.77909 6.2493 4.4844 13.727c3.6377 3.4375 7.5645 6.7519 10.232 9.4688 2.2233 1.1857 5.5643 2.5254 9.9785 3.9414 4.0699-2.2003 8.1486-7.4287 10.475-10.492 4.7755-6.2898 5.5268-14.692 10.48-21.086 8.9811-11.593 21.201-20.624 28.312-33.775 1.6621-3.0738-3.8323-4.1865-10.838-4.1602z" fill="#fff1d2"/> <path d="m146.07 434.03-4.6676-19.316s-0.39081 6.2703-2.1657 10.264c-1.7749 3.9934-1.3312 7.0107-0.53246 7.7207 0.79869 0.70995 7.3657 1.3312 7.3657 1.3312z" fill="#a24533"/> <path d="m87.483 404.82s-3.0308-3.304-2.9994-0.25994c0.05854 5.6793 6.8288 19.296 6.8288 19.296s-1.8807 3.6555-0.18825 5.7639c1.0649 2.4848 15.368 30.316 25.307 55.519 9.9392 25.203 16.329 42.597 16.329 42.597s4.9696 6.0346 10.649 8.1644c5.6796 2.1298 50.406 13.844 88.743 13.844s74.899-2.4848 98.683-15.974c0 0 4.7573-2.5268 6.2633-3.7818s5.5221-13.052 5.5221-13.052 11.797-34.89 14.558-40.663c2.761-5.7731 33.635-75.803 33.635-75.803s2.5137-7.7729-1.8198-10.511c0.24645 0.69909 0.94654 0.85631 1.2236 2.7297 0.0728 0.49204 0.30866 4.6027-4.6122 4.9259-4.3419 0.28522-5.3526 2.7341-3.5768 7.6242 1.3106 3.609 0.75301 8.0321-5.7731 6.2751s-16.566-3.012-18.323-3.012-8.0321-0.251-10.291 6.2751c-2.259 6.5261-0.251 10.793-7.7811 12.299s-30.874-5.7731-30.874-5.7731-8.5341-2.761-15.562 2.51c-7.0281 5.2711-7.2791 9.5382-13.805 8.7851-2.5919-0.29907-5.673-1.088-8.7045-2.2234-4.6014-1.7234-7.2703-3.0722-11.704-6.6873-8.0846-6.5918-19.501-4.8946-23.015-0.3765-6.4133 8.2457-13.554 13.052-19.578 12.299-6.0241-0.75301-14.809 0-21.837-11.295-7.0281-11.295-17.57-5.0201-18.825-4.7691s-18.574 14.056-26.104 14.056-15.06 2.761-9.2872-12.048c5.7731-14.809-11.797-7.7811-16.315-5.7731s-17.821 11.546-21.837 11.797c-2.1711 0.13569-10.255-5.5307-7.3447-10.757 1.2246-2.1994 6.9839-7.0816 5.2382-9.9869-1.9471-3.2404-8.1221-1.7142-8.8357-1.7049-2.393 0.0312-3.9844-0.30968-3.9844-0.30968z" fill="#c57156"/> <path transform="translate(0 151.98)" d="m85.166 251.29c-0.40233 0.00597-0.69145 0.3378-0.68164 1.2891 0.05854 5.6793 6.8281 19.295 6.8281 19.295s-1.8799 3.6554-0.1875 5.7637c1.0649 2.4848 15.367 30.316 25.307 55.52 9.9392 25.203 16.328 42.598 16.328 42.598s2.9869 3.6162 6.9707 6.2383c2.1019-1.679 4.1871-3.2642 6.3535-3.9863 4.1124-1.3708 13.837-1.3781 17.068-5.5215 5.2658-6.7521-5.898-32.121-5.5215-36.145 2.1026-22.468 19.089-52.788 43.191-57.207-2.0836-1.5627-4.1288-3.7225-6.043-6.7988-7.0281-11.295-17.571-5.0205-18.826-4.7695s-18.573 14.057-26.104 14.057-15.06 2.7604-9.2871-12.049c5.7731-14.809-11.798-7.7815-16.316-5.7734s-17.82 11.546-21.836 11.797c-2.1711 0.13569-10.256-5.5292-7.3457-10.756 1.2246-2.1994 6.984-7.083 5.2383-9.9883-1.9471-3.2404-8.1223-1.7144-8.8359-1.7051-2.393 0.0312-3.9844-0.30859-3.9844-0.30859s-1.4313-1.562-2.3164-1.5488z" fill="#e48b76" fill-opacity=".18067"/> <path transform="translate(0 151.98)" d="m388.99 237.98c0.24645 0.69909 0.94555 0.8571 1.2227 2.7305 0.0728 0.49204 0.30953 4.6025-4.6113 4.9258-4.3419 0.28522-5.3539 2.7349-3.5781 7.625 1.3106 3.609 0.75462 8.0324-5.7715 6.2754s-16.567-3.0137-18.324-3.0137-8.032-0.25071-10.291 6.2754c-2.259 6.5261-0.27733 10.667-7.7812 12.299-5.3378 1.1606-18.249-2.3259-25.785-4.293-7.1231-1.8593-12.975 7.3606-19.447 12.66-9.8972 8.1042-19.917 36.511-23.6 53.246-0.53783 2.444-6.2736 1.4485-9.0563 2.8398-7.9577 3.9788-14.843 5.3881-24.848 15.619-8.085 8.2677-9.5701 20.402-19.879 25.557-14.348 7.1741-33.119 1.4348-45.758 10.109 17.296 3.4899 39.895 6.9297 60.666 6.9297 38.337 0 74.9-2.4856 98.684-15.975 0 0 4.7557-2.5262 6.2617-3.7812s5.5234-13.053 5.5234-13.053 11.798-34.889 14.559-40.662c2.761-5.7731 33.633-75.803 33.633-75.803s2.5151-7.7738-1.8184-10.512z" fill="#a24533" fill-opacity=".32353"/> <path d="m203.82 382.9s-17.068-7.5301-25.602-7.5301-33.635 6.5261-39.659 6.5261c-6.0241 0-17.57 2.008-18.072-9.0362-0.50201-11.044 12.048-42.671 35.141-54.217 23.092-11.546 43.173-20.08 75.803-18.574 32.631 1.506 66.265 5.5221 88.353 21.586 22.088 16.064 36.647 29.116 36.145 39.659-0.502 10.542-5.5221 17.57-19.076 20.08s-44.177 0-54.719 3.5141c-10.542 3.514-29.116 10.542-44.177 9.5382s-34.137-11.546-34.137-11.546z" fill="#52130c"/> <path d="m215.29 316.71s-12.779-15.441-5.1471-29.818c7.6319-14.376 23.251-12.247 26.268-7.277 0 0 10.649-8.8743 20.943 6.3895 10.294 15.264-4.7921 25.026-4.7921 25.026s-4.6146-0.35497-20.233 3.9047c-15.619 4.2597-17.039 1.7749-17.039 1.7749z" fill="#bf0102"/> <path d="m200.91 314.05s12.779 6.212 31.593 0 38.337-2.1298 40.999-0.35497c-11.977-1.2424-26.859 0.34541-39.402 3.9047-22 6.2429-33.19-3.5497-33.19-3.5497z" fill="#83482b"/> <path d="m349.2 411.89-12.478 16.565s5.8329-0.19456 7.7853-2.7681c1.9524-2.5736 2.5628-8.9694 3.0065-10.212 0.44371-1.2424 1.6861-3.5846 1.6861-3.5846z" fill="#a24533"/> <path d="m381.86 399.15-8.8078 11.581s1.6196 0.57682 5.1693 1.1093c1.6182 0.24274 4.3484 0.0888 4.7921-4.9696 0.44372-5.0584-1.1537-7.7207-1.1537-7.7207z" fill="#a24533"/> <path d="m100.58 407.56c1.4175 4.326 3.5196 14.172 5.5756 18.89 0 0-5.8786 2.249-8.7184 2.959-2.8398 0.70995-7.8445 2.1943-6.9068-3.1732 0.79463-4.5484 4.2545-10.436 7.4116-14.003 2.9471-3.3302 2.638-4.6725 2.638-4.6725z" fill="#a24533"/> <path d="m138.71 431.14c14.808 41.195 22.342 77.562 29.19 110.8 1.2745 0.0405 2.603 0.60086 4.4404 0.95426-4.0604-32.152-13.888-73.254-26.094-109.26-2.7215 0.0885-6.0704-0.51399-7.5369-2.4867z" fill="#e48b76"/> <path d="m90.926 429.4c0.49373-0.49373 42.016 78.09 50.64 105.61l2.761 0.75301c-13.237-36.278-29.724-71.473-46.938-106.43-3.5557 1.0945-5.355 0.59978-6.4634 0.0628z" fill="#e48b76"/> <path transform="translate(0 151.98)" d="m225.72 281.16c-3.3281 1.8382-6.5535 2.7895-9.1035 2.4707-3.2405-0.40507-7.2809-0.3919-11.416-2.0352l-0.88476 0.0273c5.7676 18.353 12.371 87.238 11.547 115.51 2.4969 0.18155 4.9918 0.32639 7.4766 0.43164-0.59909-40.876-2.5992-95.101 2.3809-116.4z" fill="#e48b76"/> <path transform="translate(0 151.98)" d="m285.91 278.86c-1.6173 1.3881-3.29 2.1141-6.293 1.7676-0.59639-0.06882-1.2256-0.17208-1.8672-0.29102-5.6061 18.394-16.761 101.79-13.164 116.6 1.2312-0.07241 2.4622-0.14448 3.6816-0.22852l0.30469-0.37109c0-47.189 18.072-117.22 18.072-117.22l-0.73437-0.25391z" fill="#e48b76"/> <path transform="translate(0 151.98)" d="m344.03 273.38c-0.91068 0.7536-2.2125 1.3339-4.166 1.7246-1.304 0.26081-3.1012 0.24714-5.1504 0.06445-13.11 38.366-22.394 76.732-24.949 115.1 1.2145-0.34005 2.417-0.69058 3.5976-1.0606 2.113-36.744 31.02-115.61 31.02-115.61l-0.35156-0.21875z" fill="#e48b76"/> <path transform="translate(0 151.98)" d="m373.86 258.95c-13.404 41.09-27.659 83.314-37.424 119.55 0.2535-0.17627 0.48138-0.34484 0.65821-0.49219 0.0302-0.0252 0.0675-0.0799 0.0996-0.11328l1.1133-1.8887c1.7966-3.6973 4.3105-11.051 4.3105-11.051s0.64413-1.8885 1.0312-3.0273c9.347-37.46 38.375-102.89 38.375-102.89l0.38674-1.3982-0.88478 1.3181c-1.4014 0.88133-2.3788 1.0994-5.2734 0.58203-0.75359-0.20289-1.5634-0.39759-2.3926-0.58594z" fill="#e48b76"/> <path d="m91.087 400.06s-1.8131 3.5356-0.15653 5.1042c0 0-7.0026 0.33371-6.4623-1.586 0.70995-2.5225 3.1051-4.1288 5.3237-5.2825s1.2952 1.7642 1.2952 1.7642z" fill="#a24533"/> <path d="m162.2 362.73c-0.627 1.0697-5.8105 7.2256-12.927 9.4767-8.8319 2.7938-27.477 7.693-21.335-15.209 1.2534-4.6738 7.5908-15.948 10.668-19.772 9.6326-11.973 18.331-15.911 38.404-24.569 4.7561-2.0514 12.379-2.7863 15.06 3.5099 1.3035 3.0605 1.2013 6.652-4.8946 10.764-3.5958 2.4254-17.385 11.265-21.21 16.613-1.7845 2.4953-3.9424 5.5365-4.7691 8.4237-1.1499 4.0158 3.6401 6.2662 1.004 10.764z" fill="#83482b"/> <path d="m230.55 280.87c-1.771-3.631-8.3958-3.4898-12.676-0.251-5.4697 4.1392-7.9783 11.841-6.9483 16.168 1.0777 4.5276 3.8808 5.6551 6.3208 5.6691 8.0067 0.046 3.5402-10.568 7.2791-14.307 1.6807-1.6807 7.458-4.3392 6.0241-7.2791z" fill="#fe7e7e"/> <path d="m137.68 351.09 3.1376 1.3178c1.3098-3.2525 3.452-5.9287 6.1496-8.2204l-2.0708-1.757c-3.4321 2.0761-5.8145 4.9808-7.2164 8.6596z" fill="#5eb7d5"/> <path d="m211.45 331.82c-0.53586 3.259-1.7678 6.518-3.4861 9.7771l4.6481 1.7631c1.6046-3.5662 2.5434-7.1324 2.9652-10.699z" fill="#d05ca2"/> <path d="m290.36 363.85-3.3682 0.48566c-0.44905-3.4774-1.8487-6.6067-3.8827-9.5035l2.4463-1.1793c2.7991 2.873 4.3737 6.2839 4.8046 10.197z" fill="#5eb7d5"/> <path d="m325.35 338.5c2.8665 1.6406 5.8448 4.1109 8.2983 6.8594l2.2996-3.0294c-2.781-2.7493-5.7946-4.8748-8.9888-6.5158z" fill="#d05ca2"/> <path d="m272.33 317c3.2618 0.51867 6.9221 1.7736 10.19 3.4747l1.0772-3.6476c-3.5746-1.5857-7.1458-2.5058-10.714-2.9087z" fill="#d0ce5c"/> </g> </svg>